<?xml version="1.0" encoding="utf-8"?>
<!-- Generator: Adobe Illustrator 16.0.0, SVG Export Plug-In . SVG Version: 6.00 Build 0)  -->
<!DOCTYPE svg PUBLIC "-//W3C//DTD SVG 1.1//EN" "http://www.w3.org/Graphics/SVG/1.1/DTD/svg11.dtd">
<svg version="1.1" id="Layer_1" focusable="false" xmlns="http://www.w3.org/2000/svg" xmlns:xlink="http://www.w3.org/1999/xlink"
	 x="0px" y="0px" width="50px" height="50px" viewBox="0 0 50 50" enable-background="new 0 0 50 50" xml:space="preserve">
<path fill="#B3B3B3" d="M42.188,3.125H7.812c-2.589,0-4.688,2.099-4.688,4.688v34.375c0,2.589,2.099,4.688,4.688,4.688h34.375
	c2.589,0,4.688-2.099,4.688-4.688V7.812C46.875,5.224,44.776,3.125,42.188,3.125z M42.188,42.188H7.812V7.812h34.375V42.188z
	 M38.686,18.582L21.831,35.301c-0.459,0.455-1.201,0.453-1.657-0.007l-8.865-8.937c-0.456-0.46-0.453-1.202,0.007-1.658l2.219-2.201
	c0.459-0.456,1.201-0.453,1.657,0.007l5.839,5.887l13.804-13.693c0.459-0.456,1.201-0.453,1.657,0.006l2.2,2.219
	C39.147,17.384,39.145,18.126,38.686,18.582z"/>
</svg>
