<?xml version="1.0" encoding="utf-8"?>
<!-- Generator: Adobe Illustrator 16.0.0, SVG Export Plug-In . SVG Version: 6.00 Build 0)  -->
<!DOCTYPE svg PUBLIC "-//W3C//DTD SVG 1.1//EN" "http://www.w3.org/Graphics/SVG/1.1/DTD/svg11.dtd">
<svg version="1.1" id="Layer_1" focusable="false" xmlns="http://www.w3.org/2000/svg" xmlns:xlink="http://www.w3.org/1999/xlink"
	 x="0px" y="0px" width="50px" height="50px" viewBox="0 0 50 50" enable-background="new 0 0 50 50" xml:space="preserve">
<path fill="#B3B3B3" d="M13.672,27.734c-0.645,0-1.172-0.527-1.172-1.172v-3.125c0-0.645,0.527-1.172,1.172-1.172h22.656
	c0.645,0,1.172,0.527,1.172,1.172v3.125c0,0.645-0.527,1.172-1.172,1.172H13.672z M46.875,7.812v34.375
	c0,2.588-2.1,4.688-4.688,4.688H7.812c-2.588,0-4.688-2.1-4.688-4.688V7.812c0-2.588,2.1-4.688,4.688-4.688h34.375
	C44.775,3.125,46.875,5.225,46.875,7.812z M42.188,41.602V8.398c0-0.322-0.264-0.586-0.586-0.586H8.398
	c-0.322,0-0.586,0.264-0.586,0.586v33.203c0,0.322,0.264,0.586,0.586,0.586h33.203C41.924,42.188,42.188,41.924,42.188,41.602z"/>
</svg>
